<?xml version="1.0" encoding="UTF-8"?>
<!DOCTYPE svg PUBLIC "-//W3C//DTD SVG 1.1//EN" "http://www.w3.org/Graphics/SVG/1.1/DTD/svg11.dtd">
<!-- Creator: CorelDRAW 2019 (64-Bit) -->
<svg xmlns="http://www.w3.org/2000/svg" xml:space="preserve" width="2421px" height="413px" version="1.1" style="shape-rendering:geometricPrecision; text-rendering:geometricPrecision; image-rendering:optimizeQuality; fill-rule:evenodd; clip-rule:evenodd"
viewBox="0 0 2421 413.34"
 xmlns:xlink="http://www.w3.org/1999/xlink"
 xmlns:xodm="http://www.corel.com/coreldraw/odm/2003">
 <defs>
  <style type="text/css">
   <![CDATA[
    .fil0 {fill:white}
   ]]>
  </style>
 </defs>
 <g id="Vrstva_x0020_1">
  <metadata id="CorelCorpID_0Corel-Layer"/>
  <path class="fil0" d="M25.01 412.08l18.63 0 239.16 0c11.67,0 21.14,-9.44 21.14,-21.09l0 0 0 -239.16 0 -12.4 64.71 -64.7 0 209.3c0,11.65 9.45,21.12 21.13,21.12l0 0c11.65,0 21.11,-9.47 21.11,-21.12l0 -260.3 0 -0.07 0 -0.06 0 -0.07 0 -0.06c-0.02,-1.29 -0.17,-2.6 -0.42,-3.88l0 0c-0.11,-0.61 -0.36,-1.21 -0.53,-1.8l0 0c-0.22,-0.71 -0.39,-1.44 -0.67,-2.14l0 0c-0.29,-0.69 -0.68,-1.33 -1.04,-2l0 0c-0.3,-0.54 -0.55,-1.11 -0.9,-1.63l0 0c-1.56,-2.32 -3.53,-4.31 -5.85,-5.86l0 0c-0.54,-0.35 -1.09,-0.6 -1.63,-0.88l0 0c-0.69,-0.37 -1.3,-0.75 -2.01,-1.06l0 0c-0.69,-0.29 -1.41,-0.44 -2.13,-0.67l0 0c-0.61,-0.17 -1.18,-0.4 -1.82,-0.53l0 0c-1.35,-0.25 -2.73,-0.41 -4.11,-0.41l0 0 -0.03 0c-1.38,0 -2.77,0.16 -4.11,0.41l0 0c-0.64,0.13 -1.22,0.36 -1.81,0.53l0 0c-0.73,0.23 -1.45,0.38 -2.14,0.67l0 0c-0.72,0.31 -1.34,0.69 -2.01,1.06l0 0c-0.54,0.28 -1.12,0.53 -1.63,0.88l0 0c-1.15,0.78 -2.25,1.65 -3.22,2.64l0 0 -100.77 100.77 -12.38 0 -188.09 0 64.85 -64.72 144.36 0c11.67,0 21.14,-9.45 21.14,-21.12l0 0c0,-11.67 -9.47,-21.12 -21.14,-21.12l0 0 -161.81 0 0 0.02 -0.04 -0.02 -113.38 113.15c-0.98,0.98 -1.84,2.07 -2.62,3.22l0 0c-0.35,0.52 -0.6,1.1 -0.91,1.63l0 0c-0.36,0.67 -0.74,1.3 -1.03,2.01l0 0c-0.29,0.69 -0.46,1.42 -0.67,2.13l0 0c-0.18,0.61 -0.4,1.19 -0.54,1.8l0 0c-0.27,1.38 -0.4,2.76 -0.4,4.14l0 0 0 21.14 0 218.02 0 18.65c0,13.05 10.54,23.58 23.61,23.58zm18.63 -260.25l218.04 0 0 218.02 -200.55 0 64.73 -64.7 77.44 0c11.65,0 21.12,-9.47 21.12,-21.12l0 0c0,-11.67 -9.47,-21.12 -21.12,-21.12l0 0 -94.94 0 -64.72 64.68 0 -175.76z"/>
  <path class="fil0" d="M579.37 318.16l109.09 0 0.51 0c10.66,-0.03 20.74,-1.14 30.28,-3.28l0 0c9.7,-2.2 18.17,-5.57 25.48,-10.15l0 0c7.28,-4.58 13.03,-10.47 17.17,-17.67l0 0c4.11,-7.08 6.2,-15.51 6.26,-25.31l0 -0.47 0 -0.73c-0.11,-15.28 -3.81,-27.49 -11.07,-36.64l0 0c-7.42,-9.26 -17.47,-15.77 -30.19,-19.51l0 0c10.64,-4.79 18.61,-11.94 23.92,-21.43l0 0c5.31,-9.47 7.97,-19.41 7.97,-29.84l0 0c0,-7.09 -1.2,-14.02 -3.6,-20.79l0 0c-2.4,-6.77 -5.79,-12.82 -10.16,-18.13l0 0c-4.37,-5.31 -9.7,-9.64 -15.94,-12.97l0 0c-6.25,-3.34 -13.25,-4.99 -20.93,-4.99l0 0 -128.79 0 0 221.91zm60.94 -170.05l43.45 0c3.97,0 7.42,1.31 10.33,3.91l0 0c2.92,2.63 4.37,6.94 4.37,12.99l0 0c0,6.86 -1.72,11.47 -5.15,13.75l0 0c-3.45,2.3 -7.25,3.43 -11.43,3.43l0 0 -41.57 0 0 -34.08zm0 81.58l50.35 0c4.56,0 8.32,1.84 11.23,5.48l0 0c2.91,3.65 4.39,8.19 4.39,13.6l0 0c0,5.84 -1.72,10.32 -5.15,13.43l0 0c-3.45,3.13 -7.67,4.7 -12.67,4.7l0 0 -48.15 0 0 -37.21z"/>
  <path class="fil0" d="M795.03 318.16l60.97 0 0 -68.13 22.8 0 39.08 68.13 68.76 0 -46.88 -81.58c9.99,-7.09 17.83,-16.2 23.44,-27.33l0 0c5.64,-11.16 8.44,-23.19 8.44,-36.13l0 0c0,-9.37 -1.88,-18.68 -5.64,-27.96l0 0c-3.73,-9.28 -8.89,-17.5 -15.45,-24.7l0 0c-6.57,-7.17 -14.45,-13.01 -23.61,-17.5l0 0c-9.16,-4.48 -19.16,-6.71 -29.99,-6.71l0 0 -101.92 0 0 221.91zm60.97 -168.78l36.87 0c3.73,0 7.51,2.03 11.27,6.09l0 0c3.74,4.06 5.61,9.97 5.61,17.65l0 0c0,7.51 -1.61,13.36 -4.85,17.5l0 0c-3.23,4.17 -6.72,6.27 -10.46,6.27l0 0 -38.44 0 0 -47.51z"/>
  <polygon class="fil0" points="1006.02,318.16 1066.98,318.16 1066.98,96.25 1006.02,96.25 "/>
  <path class="fil0" d="M1207.45 94.68l-0.47 0 -0.75 0c-15.76,0.09 -30.44,2.95 -44.1,8.6l0 0c-13.85,5.73 -25.89,13.54 -36.11,23.44l0 0c-10.19,9.89 -18.22,21.56 -24.04,35l0 0c-5.85,13.43 -8.75,27.98 -8.75,43.6l0 0c0,18.13 2.9,34.28 8.75,48.44l0 0c5.82,14.19 13.64,26.17 23.43,35.96l0 0c9.8,9.79 21.26,17.23 34.38,22.35l0 0c13.13,5.11 26.89,7.64 41.27,7.64l0 0c20.62,0 38.84,-6.65 54.67,-20.01l0 0 0 18.46 50.35 0 0 -118.15 -91.28 0 0 43.75 38.44 0c-13.55,14.61 -29.16,21.91 -46.87,21.91l0 0c-7.73,0 -14.68,-1.42 -20.95,-4.24l0 0c-6.25,-2.81 -11.62,-6.78 -16.1,-11.88l0 0c-4.48,-5.12 -7.95,-11.19 -10.47,-18.28l0 0c-2.48,-7.07 -3.75,-14.99 -3.75,-23.75l0 0c0,-8.55 1.27,-16.4 3.75,-23.61l0 0c2.52,-7.18 5.95,-13.38 10.31,-18.61l0 0c4.39,-5.19 9.59,-9.26 15.64,-12.17l0 0c6.04,-2.93 12.71,-4.39 20.01,-4.39l0 0c9.78,0 19.06,2.67 27.81,7.98l0 0c8.76,5.31 15.32,12.34 19.68,21.1l0 0 45.33 -34.69c-3.97,-7.51 -9.07,-14.22 -15.32,-20.16l0 0c-6.24,-5.94 -13.27,-11.04 -21.08,-15.31l0 0c-7.81,-4.28 -16.32,-7.52 -25.48,-9.7l0 0c-9.02,-2.16 -18.45,-3.25 -28.3,-3.28z"/>
  <polygon class="fil0" points="1336.07,318.16 1397.04,318.16 1397.04,231.27 1471.41,231.27 1471.41,318.16 1532.38,318.16 1532.38,96.25 1471.41,96.25 1471.41,178.14 1397.04,178.14 1397.04,96.25 1336.07,96.25 "/>
  <polygon class="fil0" points="1618.64,318.16 1679.58,318.16 1679.58,149.38 1743.35,149.38 1743.35,96.25 1554.57,96.25 1554.57,149.38 1618.64,149.38 "/>
  <path class="fil0" d="M1765.55 318.16l109.07 0 0.51 0c10.64,-0.03 20.74,-1.14 30.29,-3.28l0 0c9.68,-2.2 18.15,-5.57 25.47,-10.15l0 0c7.28,-4.58 13.03,-10.47 17.19,-17.67l0 0c4.09,-7.08 6.18,-15.51 6.25,-25.31l0 -0.47 0 -0.73c-0.12,-15.28 -3.82,-27.49 -11.1,-36.64l0 0c-7.39,-9.26 -17.44,-15.77 -30.16,-19.51l0 0c10.64,-4.79 18.6,-11.94 23.91,-21.43l0 0c5.32,-9.47 7.98,-19.41 7.98,-29.84l0 0c0,-7.09 -1.21,-14.02 -3.6,-20.79l0 0c-2.4,-6.77 -5.77,-12.82 -10.16,-18.13l0 0c-4.37,-5.31 -9.68,-9.64 -15.93,-12.97l0 0c-6.27,-3.34 -13.26,-4.99 -20.97,-4.99l0 0 -128.75 0 0 221.91zm60.93 -170.05l43.45 0c3.96,0 7.41,1.31 10.33,3.91l0 0c2.91,2.63 4.35,6.94 4.35,12.99l0 0c0,6.86 -1.71,11.47 -5.16,13.75l0 0c-3.43,2.3 -7.22,3.43 -11.39,3.43l0 0 -41.58 0 0 -34.08zm0 81.58l50.35 0c4.56,0 8.32,1.84 11.23,5.48l0 0c2.93,3.65 4.39,8.19 4.39,13.6l0 0c0,5.84 -1.73,10.32 -5.18,13.43l0 0c-3.43,3.13 -7.64,4.7 -12.65,4.7l0 0 -48.14 0 0 -37.21z"/>
  <path class="fil0" d="M2080.45 320.04l0.79 0 0.77 0c16.14,-0.1 31.05,-3.24 44.7,-9.37l0 0c13.84,-6.25 25.78,-14.55 35.79,-24.86l0 0c10,-10.31 17.82,-22.19 23.43,-35.65l0 0c5.55,-13.22 8.35,-27 8.43,-41.34l0 -0.68 0 -0.67c-0.08,-13.93 -2.72,-27.57 -7.95,-40.9l0 0c-5.31,-13.54 -12.87,-25.63 -22.67,-36.26l0 0c-9.79,-10.62 -21.56,-19.16 -35.32,-25.62l0 0c-13.74,-6.46 -29.07,-9.7 -45.94,-9.7l0 0c-16.46,0 -31.62,3.06 -45.47,9.22 -13.88,6.15 -25.84,14.37 -35.96,24.7l0 0c-10.1,10.31 -17.96,22.23 -23.59,35.78l0 0c-5.62,13.55 -8.45,27.62 -8.45,42.18l0 0c0,14.39 2.72,28.36 8.15,41.9l0 0c5.4,13.55 13.01,25.58 22.82,36.1l0 0c9.77,10.52 21.56,19.02 35.32,25.47l0 0c13.52,6.36 28.58,9.59 45.15,9.7zm-21.25 -59.07c-6.36,-3.33 -11.62,-7.72 -15.77,-13.13l0 0c-4.18,-5.44 -7.33,-11.63 -9.4,-18.59l0 0c-2.09,-7.01 -3.12,-14.24 -3.12,-21.73l0 0c0,-7.3 0.98,-14.43 2.97,-21.41l0 0c1.97,-6.99 5.06,-13.26 9.24,-18.76l0 0c4.14,-5.51 9.41,-9.94 15.75,-13.28l0 0c6.36,-3.33 13.91,-5 22.67,-5l0 0c8.55,0 16.01,1.61 22.35,4.83l0 0c6.34,3.24 11.67,7.51 15.95,12.82l0 0c4.27,5.31 7.45,11.48 9.52,18.44l0 0c2.07,6.99 3.12,14.22 3.12,21.71l0 0c0,7.32 -0.99,14.49 -2.97,21.58l0 0c-1.97,7.09 -5,13.4 -9.06,18.92l0 0c-4.05,5.54 -9.32,10 -15.78,13.45l0 0c-6.45,3.43 -14.06,5.16 -22.82,5.16l0 0c-8.74,0 -16.31,-1.69 -22.65,-5.01l0 0z"/>
  <polygon class="fil0" points="2190.3,318.16 2256.27,318.16 2294.06,251.28 2331.9,318.16 2397.55,318.16 2325.97,208.75 2400.04,96.25 2334.42,96.25 2294.06,166.26 2253.76,96.25 2187.81,96.25 2261.89,208.75 "/>
 </g>
</svg>
